<svg width="34" height="43" viewBox="0 0 34 43" fill="none" xmlns="http://www.w3.org/2000/svg">
<path d="M0 21.3871C0 14.4944 1.4662 9.21654 4.3986 5.55355C7.331 1.85118 11.5117 0 16.9406 0C19.873 0 22.4091 0.512029 24.549 1.53609C26.6888 2.56015 28.4522 4.01747 29.8392 5.90804C31.2657 7.75922 32.3158 10.0043 32.9895 12.6432C33.6632 15.2427 34 18.1574 34 21.3871C34 28.2798 32.514 33.5773 29.542 37.2797C26.6096 40.9427 22.4091 42.7742 16.9406 42.7742C14.0478 42.7742 11.5315 42.2622 9.39161 41.2381C7.29138 40.214 5.52797 38.7764 4.1014 36.9252C2.71445 35.0347 1.68415 32.7896 1.01049 30.1901C0.33683 27.5511 0 24.6168 0 21.3871ZM5.23077 21.3871C5.23077 23.6715 5.44872 25.8378 5.88461 27.8859C6.36014 29.9341 7.07343 31.7459 8.02448 33.3213C8.97552 34.8574 10.1841 36.0981 11.6504 37.0434C13.1562 37.9493 14.9196 38.4022 16.9406 38.4022C20.6259 38.4022 23.5187 37.0237 25.6189 34.2666C27.7191 31.4701 28.7692 27.177 28.7692 21.3871C28.7692 19.142 28.5315 16.9955 28.0559 14.9473C27.62 12.8598 26.9068 11.048 25.9161 9.51194C24.965 7.93646 23.7366 6.69578 22.2308 5.78988C20.7646 4.84459 19.0012 4.37195 16.9406 4.37195C13.2949 4.37195 10.4219 5.77018 8.32168 8.56665C6.26107 11.3237 5.23077 15.5972 5.23077 21.3871Z" fill="#FE5B00"/>
</svg>
